<?xml version="1.0" encoding="utf-8"?>
<!-- Generator: Adobe Illustrator 23.0.1, SVG Export Plug-In . SVG Version: 6.00 Build 0)  -->
<svg version="1.1" id="Layer_1" xmlns="http://www.w3.org/2000/svg" xmlns:xlink="http://www.w3.org/1999/xlink" x="0px" y="0px"
	 viewBox="0 0 841.9 595.3" style="enable-background:new 0 0 841.9 595.3;" xml:space="preserve">
<style type="text/css">
	.st0{display:none;fill:#FEFEFE;}
	.st1{fill:#11334C;}
</style>
<path class="st0" d="M420.8,595.5c-139.7,0-279.5,0-419.2,0c-1.3,0-1.7-0.3-1.7-1.7c0-197.5,0-395,0-592.6c0-1.3,0.3-1.7,1.7-1.7
	c279.6,0,559.2,0,838.8,0c1.3,0,1.7,0.3,1.7,1.7c0,197.5,0,395,0,592.6c0,1.3-0.3,1.7-1.7,1.7C700.5,595.5,560.6,595.5,420.8,595.5z
	"/>
<path class="st1" d="M166.9,244.6c0.3-5.3,1.4-10.5,3.4-15.4c2.9-7.5,7.1-14,12.7-19.8c4.8-5,10.1-9.2,16.3-12.2
	c6.5-3.2,13.4-4.8,20.6-5.5c1.3-0.3,2.7,0.1,4.1-0.3c0.9,0,1.8,0.1,2.7,0.1c16.9,0,33.8,0,50.7,0c2.5,0,2.5,0,1.8,2.4
	c-2.3,8.8-4.5,17.6-6.9,26.4c-0.3,1.1-0.1,1.8,0.4,2.6c1.9,2.8,3.8,5.7,5.7,8.6c0.3,0.4,0.6,0.7,0.6,1.3c-0.7,0-1.3,0-2,0
	c-16.7,0-33.5,0-50.2,0c-0.7,0-1.3,0-2,0.1c-0.8,0.3-1.6-0.1-2.3,0.3c-7,0.3-14.1,7.7-14.3,14.3c-0.2,1.8-0.3,3.5,0,5.3
	c0.5,5.3,3.4,9,7.6,11.8c2.3,1.6,4.8,2.5,7.6,2.5c12.3,0.2,24.6,0.2,36.9,0c1.5,0.4,3-0.1,4.4,0.3c7.2,0.8,14.1,2.3,20.5,5.8
	c16,8.6,26.8,21.4,31.2,39.3c0.4,1.6,0.6,3.1,0.9,4.7c0.3,0.6-0.1,1.3,0.3,1.9c0,0.6,0.1,1.1,0.1,1.7c0.2,3.2,0.2,6.5,0,9.7
	c-1.1,11.8-5.1,22.4-12.6,31.6c-4.8,5.8-10.3,10.7-16.8,14.5c-6.8,3.9-14.1,6.2-21.8,7.2c-0.7,0.3-1.6-0.1-2.3,0.3
	c-28.5,0-57.1,0-85.6,0c-2.5,0-4.9,0-7.4,0c-0.9,0-1.2-0.2-1.2-1.2c0-13,0-25.9,0-38.9c0-1.5,0.9-1.2,1.7-1.2c21.4,0,42.8,0,64.2,0
	c7.6,0,15.2-0.1,22.8,0c6.9,0.1,11.8-3.2,15.5-8.8c1.2-1.8,1.6-3.9,2-6c0.2-1.6,0.3-3.3,0-4.9c-1.2-7.6-6.4-12.8-14.3-14.4
	c-0.7-0.3-1.6,0-2.3-0.3c-8.8,0-17.6,0-26.4-0.1c-4.4,0-8.7,0-13.1,0c-0.6-0.3-1.3,0-1.9-0.3c-4.9-0.3-9.6-1.5-14.1-3.2
	c-6.5-2.4-12.2-6-17.4-10.5c-4.3-3.7-8-8-11.1-12.7c-4-6.1-6.7-12.6-8-19.8c-0.2-1-0.2-2.1-0.5-3.1c-0.3-0.6,0.1-1.3-0.3-1.9
	c0-0.6-0.1-1.1-0.1-1.7c-0.3-1.5,0.1-3-0.3-4.4c0.2-0.5,0.2-1,0-1.5C167,247.6,166.5,246.1,166.9,244.6z"/>
<g>
	<path class="st1" d="M341.6,243.4c-2.1,2-3.7,3.6-5.4,5.2c-4.5,4.2-8.9,8.4-13.4,12.6c-3.5,3.3-7.1,6.6-10.5,9.9
		c-0.9,0.9-1.2,0.9-1.9-0.2c-2.1-3.3-4.3-6.5-6.5-9.7c-3-4.6-6-9.3-9-13.9c-3.8-5.9-7.6-11.8-11.5-17.7c-1.5-2.2-2.7-4.6-4.5-6.7
		c-1-1.1-1.3-2.5-0.9-4.1c1.4-5.2,2.8-10.3,4-15.5c0.9-4,2.2-8,3.2-12.2c3.4,2.7,6.6,5.2,9.8,7.8c4.8,3.8,9.5,7.6,14.3,11.4
		c3.5,2.8,7.1,5.7,10.6,8.5s7,5.5,10.4,8.3c5,4,10,7.9,15,11.9c0.4,0.3,0.4,0.5,0.9,0.1c3.7-3,7.4-6.1,11.1-9
		c4.3-3.4,8.6-6.7,12.9-10.1c4.4-3.5,8.7-7.1,13.1-10.6c3.5-2.8,7.1-5.6,10.7-8.5c3.7-2.9,7.3-5.9,11-8.8c0.4-0.3,0.9-0.5,1.5-0.9
		c1.1,4.2,2.1,8.3,3.1,12.3c1.2,4.6,2.3,9.2,3.7,13.7c0.8,2.5,0.3,4.5-1.2,6.7c-3.7,5.3-7.1,10.8-10.6,16.2
		c-3.9,5.9-7.9,11.7-11.6,17.6c-2.8,4.4-5.7,8.7-8.5,13.2c-0.6,0.9-0.7,1.4-2,0.4c-1.5-1.2-2.8-2.6-4.2-3.9
		c-3.4-3.3-6.9-6.6-10.3-9.9c-4.8-4.8-9.9-9.3-15.2-14.1c0,0.8,0,1.4,0,2.1c0,61.6,0,123.2,0,184.8c0,1.8-0.4,2.4-2.2,2.2
		c-1.6-0.2-3.2-0.1-4.9,0c-1.1,0.1-1.4-0.3-1.3-1.3c0.1-0.4,0-0.8,0-1.3c0-61.3,0-122.6,0-183.9
		C341.6,245.4,341.6,244.7,341.6,243.4z"/>
	<path class="st1" d="M357.3,374.6c2.4,0,4.4,1.9,4.4,4.2c0,2.3-2,4.1-4.5,4.1c-2.4,0-3.8-1.6-3.8-4.2
		C353.4,376,354.8,374.6,357.3,374.6z"/>
	<path class="st1" d="M357.2,319.5c-2.5,0-3.8-1.4-3.8-4.2c0-2.2,1.9-4.1,4-4.1c2.2,0,4.4,2.1,4.2,4.3
		C361.5,318,359.9,319.8,357.2,319.5z"/>
</g>
<path class="st1" d="M420.9,384.3c0.3-0.7,0.2-1.5,0.2-2.3c0-34.1,0-68.2,0-102.3c0-0.5-0.1-1,0-1.4c0.3-0.8,0.5-0.1,0.8,0.1
	c-0.9,0.6-0.5,1.5-0.5,2.3c0,33.8,0,67.5,0,101.3C421.4,382.7,421.9,383.7,420.9,384.3z"/>
<path class="st1" d="M317.9,330.3c0-3.2,0-6.5,0-9.7C318.3,323.8,318.3,327.1,317.9,330.3z"/>
<path class="st1" d="M570.1,378.1c2.1,0.6,4.2,1.4,6.1,2.6C574,380.3,572,379.5,570.1,378.1z"/>
<path class="st1" d="M208.3,252.6c-0.5-1.8-0.5-3.5,0-5.3C208.3,249.1,208.3,250.9,208.3,252.6z"/>
<path class="st1" d="M515.4,278.8c0.2-0.3,0.7-0.6,0.7,0c0,1.5,0.3,3-0.3,4.4C515.6,281.8,516.2,280.2,515.4,278.8z"/>
<path class="st1" d="M276.4,323c0.5,1.6,0.5,3.3,0,4.9C276.4,326.3,276.4,324.7,276.4,323z"/>
<path class="st1" d="M166.9,244.6c0,1.5,0,3-0.3,4.5C166.7,247.6,166.3,246.1,166.9,244.6z"/>
<path class="st1" d="M166.6,250.6c0.3,1.5,0.3,3,0.3,4.4C166.3,253.6,166.7,252.1,166.6,250.6z"/>
<path class="st1" d="M264.9,267.2c-1.5,0-3,0-4.4-0.3C261.9,267.1,263.4,266.6,264.9,267.2z"/>
<path class="st1" d="M224,191.4c-1.3,0.3-2.7,0.3-4.1,0.3C221.2,191,222.6,191.4,224,191.4z"/>
<path class="st1" d="M622,239.9c-1,0-2,0.1-3-0.3C620,239.7,621,239.3,622,239.9z"/>
<path class="st1" d="M709.8,330.4c-0.3-1-0.3-2-0.3-3C710.1,328.4,709.7,329.4,709.8,330.4z"/>
<path class="st1" d="M607.4,194.6c-0.9,0.4-1.8,0.3-2.7,0.3C605.6,194.3,606.5,194.7,607.4,194.6z"/>
<path class="st1" d="M709.5,344.7c0-0.9-0.1-1.8,0.3-2.7C709.7,342.9,710.1,343.8,709.5,344.7z"/>
<path class="st1" d="M604.4,387.2c0.9,0,1.8-0.1,2.7,0.3C606.1,387.4,605.2,387.8,604.4,387.2z"/>
<path class="st1" d="M619.7,432.5c0.9-0.3,1.8-0.3,2.7-0.3C621.5,432.8,620.6,432.4,619.7,432.5z"/>
<path class="st1" d="M222.6,233.1c0.7-0.4,1.5-0.3,2.3-0.3C224.2,233.4,223.4,233,222.6,233.1z"/>
<path class="st1" d="M259.8,308.4c0.8-0.1,1.6-0.1,2.3,0.3C261.4,308.6,260.6,309,259.8,308.4z"/>
<path class="st1" d="M264.4,383.9c0.7-0.3,1.5-0.3,2.3-0.3C266,384.2,265.1,383.9,264.4,383.9z"/>
<path class="st1" d="M167,256.8c0.3,0.6,0.3,1.2,0.3,1.9C166.7,258.1,167,257.4,167,256.8z"/>
<path class="st1" d="M218.4,308.1c0.7,0,1.3-0.1,1.9,0.3C219.7,308.3,219,308.6,218.4,308.1z"/>
<path class="st1" d="M317.8,318.9c-0.3-0.6-0.3-1.2-0.3-1.9C318,317.6,317.7,318.2,317.8,318.9z"/>
<path class="st1" d="M600.8,386.9c0.7,0,1.3-0.1,1.9,0.3C602,387.1,601.3,387.4,600.8,386.9z"/>
<path class="st1" d="M624,432.1c0.6-0.3,1.3-0.3,1.9-0.3C625.4,432.4,624.7,432.1,624,432.1z"/>
<path class="st1" d="M709.7,285.9c-0.4-1,0-2-0.3-3c-0.3-1.8-0.6-3.7-0.8-5.5c-1.1-10.1-4.2-19.7-8.7-28.8
	c-3.6-7.1-8.1-13.7-13.4-19.7c-8.3-9.5-17.9-17.5-29.1-23.4c-11.2-5.9-23.1-9-35.6-10.2c-1-0.4-2,0.1-3-0.3c-3.9,0-7.7,0-11.6,0
	c-0.9,0.4-1.8,0-2.7,0.3c-11.1,1.1-21.9,3.6-32.6,6.9c-13.4,4.1-26.2,9.7-38.6,16.3c-7,3.7-13.8,7.7-20.4,11.9
	c-5.2,3.4-10.3,6.9-15.4,10.6c-5.4,3.8-10.6,7.8-15.8,11.9c-4.2,3.2-8.2,6.6-12.2,10c-0.7,0.6-1.1,0.6-1.8,0
	c-3.5-2.8-6.9-5.5-10.4-8.2c-12.9-10.1-25.7-20.2-38.5-30.3c-1-0.9-1.5-1.1-2.4,0.3c-5.1,8.1-10.4,16.2-15.6,24.2
	c-2.7,4.2-5.5,8.5-8.3,12.7c-3.1,4.7-6.2,9.3-9.1,14c-1.1,1.8-2.8,3.4-2.8,5.9c0,33.7,0,67.5,0,101.3c0,1.4,0.3,1.7,1.7,1.7
	c12.1,0,24.3,0,36.5,0c0.7,0,1.3,0.1,2,0.1c0.6-0.6,0.3-1.3,0.3-2c0-33.9,0-67.8,0-101.7c0-0.5,0-1.1,0-1.6c0-0.4,0.2-0.7,0.7-0.6
	c3.5,2.7,6.9,5.4,10.3,8.1c6,4.8,11.9,9.6,17.9,14.3c6.2,4.9,12.5,9.7,18.7,14.6c2.8-2.2,5.5-4.3,8.3-6.5
	c7.6-6.1,15.2-12.1,22.8-18.1c5.2-4.1,10.3-8.1,15.5-12.1c0.4-0.2,0.5,0.1,0.5,0.4c0,1.3,0.2,2.7-0.1,4c0.1,6-0.2,11.9,0.3,17.9
	c0.5,5.3,1.5,10.6,2.8,15.8c2.1,7.8,5.3,15.2,9.4,22.2c4.1,6.9,8.8,13.3,14.5,19c3.4,3.5,7.1,6.7,10.9,9.8c5,4.1,10.4,7.5,16.4,10.1
	c2,1,4.1,1.8,6.1,2.6c3,1,5.9,2.3,9,3.1c5.1,1.4,10.2,2.5,15.5,3c0.6,0.3,1.3,0,1.9,0.3c0.6,0,1.1,0.1,1.7,0.1
	c0.9,0.3,1.8,0,2.7,0.3c4.2,0,8.4,0,12.6,0c0.9-0.4,1.8,0,2.7-0.3c0.6,0,1.1-0.1,1.7-0.1c0.6-0.4,1.3,0,1.9-0.3
	c5.3-0.8,10.6-1.7,15.7-3.3c6.4-2,12.6-4.5,18.4-7.8c8.9-5,16.7-11.4,23.7-18.8c6.1-6.4,11.2-13.4,15.4-21.1
	c6.1-11.3,9.2-23.5,10.5-36.2c0.3-0.9,0-1.8,0.2-2.2C709.7,293.6,709.7,289.8,709.7,285.9z M613.3,346.2
	c-30,0.6-55.2-25.1-55.2-55.2c0-29.9,25.1-55.2,55.3-55.2c30,0.1,55.2,25.2,55.1,55.4C668.5,321.2,643.3,346.8,613.3,346.2z"/>
</svg>
